<svg width="85" height="85" viewBox="0 0 85 85" fill="none" xmlns="http://www.w3.org/2000/svg">
<path d="M30.125 66V22.25H37.125V66H30.125ZM40.3125 46.25V39.4375H44.5C47.5417 39.4375 49.1875 37.9583 49.4375 35C49.4375 34.75 49.4375 34.5 49.4375 34.25C49.1459 30.9583 47.5 29.2292 44.5 29.0625H40.3125V22.25H45.0625C52.6459 22.375 56.4584 26.3333 56.5 34.125C56.5 40.1667 54.5834 43.9375 50.75 45.4375C49.1667 45.9792 47.2709 46.25 45.0625 46.25C44.9792 46.25 43.3959 46.25 40.3125 46.25Z" fill="white"/>
<rect x="2" y="2" width="81" height="81" stroke="white" stroke-width="4"/>
</svg>
