<svg width="20" height="18" viewBox="0 0 20 18" fill="none" xmlns="http://www.w3.org/2000/svg">
<path d="M19.0035 4.81175C18.9192 4.6899 18.8066 4.59031 18.6754 4.5215C18.5442 4.45269 18.3982 4.41672 18.25 4.41667H5.72196L4.66412 1.8775C4.52542 1.54312 4.29055 1.25746 3.9893 1.05673C3.68804 0.856001 3.33396 0.749247 2.97196 0.750004H0.833374V2.58334H2.97196L7.32062 13.0196C7.39028 13.1866 7.50778 13.3292 7.65834 13.4295C7.80891 13.5298 7.98579 13.5834 8.16671 13.5833H15.5C15.8823 13.5833 16.2242 13.3459 16.359 12.9893L19.109 5.656C19.1609 5.51724 19.1785 5.36794 19.1601 5.22091C19.1418 5.07387 19.088 4.93348 19.0035 4.81175ZM14.8648 11.75H8.77812L6.48646 6.25H16.9273L14.8648 11.75Z" fill="white"/>
<path d="M8.625 17.25C9.38439 17.25 10 16.6344 10 15.875C10 15.1156 9.38439 14.5 8.625 14.5C7.86561 14.5 7.25 15.1156 7.25 15.875C7.25 16.6344 7.86561 17.25 8.625 17.25Z" fill="white"/>
<path d="M15.0416 17.25C15.801 17.25 16.4166 16.6344 16.4166 15.875C16.4166 15.1156 15.801 14.5 15.0416 14.5C14.2822 14.5 13.6666 15.1156 13.6666 15.875C13.6666 16.6344 14.2822 17.25 15.0416 17.25Z" fill="white"/>
</svg>
